<?xml version="1.0" encoding="UTF-8"?>
<svg version="1.1" xmlns="http://www.w3.org/2000/svg" width="500" height="500">
<path d="M0 0 C165 0 330 0 500 0 C500 165 500 330 500 500 C335 500 170 500 0 500 C0 335 0 170 0 0 Z " fill="#FEFEFE" transform="translate(0,0)"/>
<path d="M0 0 C0.70125 0.144375 1.4025 0.28875 2.125 0.4375 C7.27706241 1.44551221 11.90586136 1.04879325 17 0 C17.495 0.495 17.495 0.495 18 1 C23.22899011 1.23371642 23.22899011 1.23371642 28.3125 0.3125 C28.869375 0.209375 29.42625 0.10625 30 0 C31 1 32 2 33 3 C36.10839021 3.7269226 36.10839021 3.7269226 39 4 C39 3.34 39 2.68 39 2 C40.65 2 42.3 2 44 2 C44.495 3.485 44.495 3.485 45 5 C47.97 5.33 50.94 5.66 54 6 C54.33 5.01 54.66 4.02 55 3 C56.65 3.33 58.3 3.66 60 4 C60.33 5.32 60.66 6.64 61 8 C63.41645782 8.16687448 63.41645782 8.16687448 66 8 C66.66 7.34 67.32 6.68 68 6 C70.625 6.375 70.625 6.375 73 7 C73.33 7.99 73.66 8.98 74 10 C76.91482778 10.80967438 78.46113217 11.21845993 81.3125 10.0625 C81.869375 9.711875 82.42625 9.36125 83 9 C86 11 86 11 87 14 C90.52233771 14.94990136 90.52233771 14.94990136 94 14.25 C94.66 14.1675 95.32 14.085 96 14 C96.67417969 14.73089844 97.34835938 15.46179688 98.04296875 16.21484375 C101.49838745 19.83015329 105.7609926 21.41933157 110.3125 23.3125 C111.14845703 23.67150391 111.98441406 24.03050781 112.84570312 24.40039062 C114.89282692 25.27772939 116.94395816 26.14382116 119 27 C119.33 26.01 119.66 25.02 120 24 C122.1875 23.25 122.1875 23.25 125 23 C128.94244409 25.3838034 130.66028846 27.6154895 132 32 C134.6993152 31.63585255 135.73881048 31.33121352 137.45703125 29.15234375 C137.90433594 28.42144531 138.35164062 27.69054687 138.8125 26.9375 C140.359375 24.75 140.359375 24.75 142 23 C145.51676123 22.44472191 147.92467156 22.76893769 151.36328125 23.5078125 C158.79523598 24.89511072 164.93833217 25.041607 171.5 21 C177.53039096 17.39207378 182.08764708 16.82498104 189 18 C198.94779236 20.54573515 208.02152119 24.80670409 217.125 29.5 C218.00148193 29.95028564 218.87796387 30.40057129 219.78100586 30.86450195 C224.97120004 33.63250571 230.01945186 36.59154293 234 41 C234.93700193 44.14564934 234.99426369 46.85659236 235.125 50.125 C237.23500702 59.46931679 243.6485391 66.97402848 249.4375 74.375 C258.99408104 86.61198612 272.64868046 105.01408638 271.67797852 121.15307617 C271.12373258 133.01722015 274.00689259 140.92210033 280 151 C280.50450684 151.8559375 281.00901367 152.711875 281.52880859 153.59375 C289.96901396 167.75378475 299.19233832 181.43410618 308.38574219 195.11206055 C308.80283447 195.73298584 309.21992676 196.35391113 309.6496582 196.99365234 C310.78554429 198.68315395 311.92346354 200.3712881 313.06152344 202.05932617 C317.9437094 209.46561458 317.9437094 209.46561458 318.29296875 212.78125 C319.35228953 217.60379321 322.24835044 220.71389555 325.3125 224.5 C326.47691111 225.96744169 327.6397056 227.4361678 328.80078125 228.90625 C329.35072754 229.59976563 329.90067383 230.29328125 330.46728516 231.0078125 C332.45478103 233.59111393 334.24191496 236.25651915 336 239 C334.213045 243.82477849 330.43926716 246.77567552 325.96875 249.01953125 C322.23103369 250.54669519 319.90785874 251.46832384 316 250 C314.41601563 248.22167969 314.41601563 248.22167969 312.90625 245.921875 C312.35066406 245.09042969 311.79507812 244.25898438 311.22265625 243.40234375 C310.36994141 242.08943359 310.36994141 242.08943359 309.5 240.75 C308.36630515 239.03531868 307.23093266 237.32174518 306.09375 235.609375 C305.56265625 234.80435547 305.0315625 233.99933594 304.484375 233.16992188 C303.26900026 231.39323591 301.94488748 229.69138641 300.59375 228.015625 C299 226 299 226 299 224 C297.824375 223.8453125 297.824375 223.8453125 296.625 223.6875 C294 223 294 223 292 220 C287.91635748 221.27555037 284.19486364 222.7976789 280.39453125 224.7578125 C279.33758057 225.29736572 278.28062988 225.83691895 277.19165039 226.39282227 C275.51897095 227.25025024 275.51897095 227.25025024 273.8125 228.125 C263.05087471 233.57385758 252.22771199 238.59368486 241 243 C239.36998047 243.64388672 239.36998047 243.64388672 237.70703125 244.30078125 C228.83865433 247.66464836 218.18899783 251.43822654 208.765625 248.2421875 C206.7430704 247.27653173 204.88318566 246.21304301 203 245 C202.154375 244.46375 201.30875 243.9275 200.4375 243.375 C193.26777568 236.38911477 188.7829895 227.208349 184.3125 218.375 C183.70592985 217.18503602 183.09898915 215.99526086 182.49169922 214.80566406 C181.25521883 212.38061752 180.02367892 209.95313457 178.79443359 207.52441406 C177.12231248 204.2402317 175.42043391 200.97372124 173.70703125 197.7109375 C167.15985037 185.11926191 161.9445431 172.49033721 157.6574707 158.95751953 C157.03525752 156.95454564 157.03525752 156.95454564 156 155 C154.6696875 155.2165625 154.6696875 155.2165625 153.3125 155.4375 C150 155 150 155 147.3125 152.0625 C141.96650695 143.44182436 141.59000598 135.13299852 141.6640625 125.171875 C141.6547538 123.17476756 141.64541664 121.17765976 141.63438988 119.18056107 C141.61206279 114.29288335 141.62201613 109.40525404 141.63964844 104.51757812 C141.64845879 101.76030606 141.64402397 99.00362388 141.62582397 96.24639893 C141.60992887 93.65883634 141.61456106 91.07104749 141.64199829 88.48358154 C141.69469896 81.66883745 141.69469896 81.66883745 138.65698242 75.77758789 C135.75379332 73.83528156 132.82146725 72.22961087 129.6875 70.6875 C124.22827576 67.6538552 124.22827576 67.6538552 123.22265625 64.7734375 C123.25 62.5625 123.25 62.5625 124 59 C120.75088423 58.44527292 117.60589034 57.9732807 114.3125 57.75 C111 57 111 57 109.1875 54.75 C108 52 108 52 107.3125 49.4375 C105.25791717 45.62184618 101.97791744 44.43147481 98 43 C94.34725531 42.27518916 94.34725531 42.27518916 91 42 C88.625 41.625 88.625 41.625 87 41 C86.67 40.01 86.34 39.02 86 38 C84.96939453 38.05220703 84.96939453 38.05220703 83.91796875 38.10546875 C83.01691406 38.13253906 82.11585938 38.15960938 81.1875 38.1875 C79.84751953 38.23970703 79.84751953 38.23970703 78.48046875 38.29296875 C75.52011229 37.94332035 74.92350353 37.16740599 73 35 C70.09926819 34.32198966 70.09926819 34.32198966 67 34 C64.30967999 33.50381577 61.67230679 32.91711037 59.01953125 32.24609375 C52.81987011 30.6829636 47.22881442 29.68247672 40.828125 29.9921875 C39.92320312 29.99605469 39.92320312 29.99605469 39 30 C38.67 29.67 38.34 29.34 38 29 C35.18443216 28.92769007 32.38207789 29.00376369 29.56640625 29.0625 C27 29 27 29 25 28 C22.66706666 27.95679753 20.3329866 27.95977609 18 28 C15.99996567 28 13.99972541 27.99999517 12 27.96484375 C8.45920925 27.9164345 5.43215303 28.03899715 2 29 C1.67 28.67 1.34 28.34 1 28 C-2.23967598 27.73331389 -5.50081532 27.81035391 -8.75 27.8125 C-9.76191406 27.81185547 -10.77382812 27.81121094 -11.81640625 27.81054688 C-20.24032225 27.8665705 -28.60129819 28.37370225 -37 29 C-54.01794122 30.25100905 -54.01794122 30.25100905 -60.0625 30.375 C-61.14660156 30.40335938 -62.23070312 30.43171875 -63.34765625 30.4609375 C-66.75064994 29.86954832 -67.89872975 28.68846125 -70 26 C-71.12589491 22.62231526 -71.13294275 19.99187928 -71.125 16.4375 C-71.12757812 15.28121094 -71.13015625 14.12492187 -71.1328125 12.93359375 C-71 10 -71 10 -70 8 C-67.63354492 7.4375 -67.63354492 7.4375 -64.48046875 7 C-62.74422241 6.75407104 -62.74422241 6.75407104 -60.97290039 6.50317383 C-59.72371826 6.33712646 -58.47453613 6.1710791 -57.1875 6 C-55.91318115 5.82557373 -54.6388623 5.65114746 -53.32592773 5.47143555 C-38.0730984 3.41885285 -22.92039618 1.87531266 -7.53540039 1.34106445 C-3.43879322 1.59735861 -3.43879322 1.59735861 0 0 Z " fill="#010101" transform="translate(123,63)"/>
<path d="M0 0 C16.60243385 11.15791101 27.41540657 36.0338291 36.7421875 53.109375 C34.23096423 55.91854002 31.42028783 57.58885143 28.1796875 59.484375 C22.43298973 62.91797305 17.01669033 66.71811291 11.6171875 70.671875 C-6.7621312 84.109375 -6.7621312 84.109375 -10.2578125 84.109375 C-11.8048198 74.61338341 -12.75716475 65.13728339 -13.47216797 55.54663086 C-14.32774314 40.74333317 -14.32774314 40.74333317 -21.2578125 28.109375 C-26.74594497 24.04316776 -33.73154788 22.69295391 -40.2578125 21.109375 C-39.65202997 19.09009989 -38.96687188 17.09474127 -38.2578125 15.109375 C-38.03609375 14.44808594 -37.814375 13.78679687 -37.5859375 13.10546875 C-35.33804383 7.51754438 -32.35209325 5.4971769 -26.890625 3.140625 C-26.02179688 2.8003125 -25.15296875 2.46 -24.2578125 2.109375 C-23.53335937 1.7896875 -22.80890625 1.47 -22.0625 1.140625 C-15.25995989 -1.57035039 -6.94741188 -2.74050157 0 0 Z " fill="#FCFCFC" transform="translate(357.2578125,194.890625)"/>
<path d="M0 0 C0.99 0.33 1.98 0.66 3 1 C4.00563219 3.35465097 4.78516104 5.55541668 5.5 8 C5.71358154 8.71043457 5.92716309 9.42086914 6.1472168 10.15283203 C14.17383449 37.87121616 14.17383449 37.87121616 9.1875 47.5 C6.17375934 50.94427504 4.74423209 51.93998128 0.125 52.3125 C-3.68279072 52.20071165 -6.00329672 51.48298271 -9 49 C-12.33427871 45.20582078 -12.33580382 41.76470099 -12.27416992 36.94458008 C-11.75525626 31.37145661 -9.97057622 26.17705934 -8.25 20.875 C-7.90195312 19.74707031 -7.55390625 18.61914062 -7.1953125 17.45703125 C-5.25682967 11.31850229 -3.07146889 5.6586972 0 0 Z " fill="#050505" transform="translate(52,102)"/>
<path d="M0 0 C1.41995501 0.23059099 2.83597978 0.48544138 4.25 0.75 C5.03890625 0.88921875 5.8278125 1.0284375 6.640625 1.171875 C9.73225774 2.25701762 10.95112964 3.42751793 13 6 C13.62327769 8.6357754 14.01431241 10.96237956 14.265625 13.6328125 C14.34874939 14.3835202 14.43187378 15.13422791 14.51751709 15.90768433 C14.69029119 17.50218782 14.85449706 19.09763973 15.01074219 20.69384766 C15.24465594 23.0706978 15.50648031 25.44306755 15.7734375 27.81640625 C16.93039009 38.57069193 17.20314213 49.18993652 17 60 C13.9663123 59.42071273 13.19319687 59.23240209 11.1328125 56.75390625 C-7.04827586 27.85517241 -7.04827586 27.85517241 -11 16 C-10.01 15.67 -9.02 15.34 -8 15 C-7.64695801 15.50450684 -7.29391602 16.00901367 -6.93017578 16.52880859 C-5.3305071 18.81232117 -3.72779283 21.09367931 -2.125 23.375 C-1.56941406 24.1690625 -1.01382812 24.963125 -0.44140625 25.78125 C0.36103516 26.92207031 0.36103516 26.92207031 1.1796875 28.0859375 C1.67194824 28.7876709 2.16420898 29.4894043 2.67138672 30.21240234 C4.01871711 32.11586187 4.01871711 32.11586187 6 34 C5.52989502 32.9941687 5.52989502 32.9941687 5.05029297 31.96801758 C3.64015743 28.92430398 2.2574338 25.86888878 0.875 22.8125 C0.38128906 21.75740234 -0.11242187 20.70230469 -0.62109375 19.61523438 C-1.07871094 18.59365234 -1.53632813 17.57207031 -2.0078125 16.51953125 C-2.65194092 15.11344604 -2.65194092 15.11344604 -3.30908203 13.67895508 C-4.16986819 10.34135561 -3.53036674 9.02539807 -2 6 C-1.32204472 4.00379834 -0.65266469 2.00461299 0 0 Z " fill="#F7F7F7" transform="translate(318,228)"/>
<path d="M0 0 C1.32 0 2.64 0 4 0 C4.99 0.33 5.98 0.66 7 1 C6.34 2.98 5.68 4.96 5 7 C4.4225 6.67 3.845 6.34 3.25 6 C0.80116138 4.72924102 0.80116138 4.72924102 -3 5 C-3.99 7.97 -4.98 10.94 -6 14 C-4.68 13.67 -3.36 13.34 -2 13 C-2.33 11.68 -2.66 10.36 -3 9 C0.63 9 4.26 9 8 9 C8.33 7.68 8.66 6.36 9 5 C12.06026552 1.54486151 13.70821634 0.09568768 18.375 -0.25 C22 0 22 0 24.5 0.9375 C26.3135547 3.43113772 26.20106661 4.35397422 26 7.375 C25.33603177 11.53496419 24.12595056 14.05792889 21 17 C17.24706451 18.2509785 13.9263251 18.45902757 10 18 C7.61349407 16.46031875 7.1576988 15.5017689 6.3125 12.8125 C6.209375 12.214375 6.10625 11.61625 6 11 C5.34 11 4.68 11 4 11 C3.67 12.98 3.34 14.96 3 17 C-1.85158892 18.33836936 -6.06680496 17.98663901 -11 17 C-13.35620437 13.46569344 -13.48991613 12.16428713 -13 8 C-9.55106193 1.81569725 -7.08399255 -0.28914255 0 0 Z " fill="#0D0D0D" transform="translate(89,244)"/>
<path d="M0 0 C1.98 0 3.96 0 6 0 C7.99097846 2.98646769 8.94124926 5.59687262 10 9 C10.74443359 8.02546875 10.74443359 8.02546875 11.50390625 7.03125 C16.98650249 0.28984135 16.98650249 0.28984135 20.08984375 -0.59765625 C22 -0.5625 22 -0.5625 25 0 C24.80664062 0.6290625 24.61328125 1.258125 24.4140625 1.90625 C22.7907875 7.24216385 21.30539435 12.57759268 20 18 C17.36 18 14.72 18 12 18 C12.66 15.36 13.32 12.72 14 10 C11.69 12.64 9.38 15.28 7 18 C6.01 17.67 5.02 17.34 4 17 C2.8125 13.4375 2.8125 13.4375 2 10 C1.34 12.64 0.68 15.28 0 18 C-1.65 18 -3.3 18 -5 18 C-5 17.34 -5 16.68 -5 16 C-4.34 16 -3.68 16 -3 16 C-2.01 10.72 -1.02 5.44 0 0 Z " fill="#0F0F0F" transform="translate(71,202)"/>
<path d="M0 0 C9.63343558 -0.45552147 9.63343558 -0.45552147 14.1875 1.0625 C16 3 16 3 16.5 6.375 C15.87177097 10.92966048 14.60124908 13.42518664 11.34375 16.62890625 C8.06609228 18.54633602 5.51393187 18.29205366 1.75 18.1875 C0.48671875 18.16042969 -0.7765625 18.13335937 -2.078125 18.10546875 C-3.04234375 18.07066406 -4.0065625 18.03585937 -5 18 C-4.80664062 17.3709375 -4.61328125 16.741875 -4.4140625 16.09375 C-2.7907875 10.75783615 -1.30539435 5.42240732 0 0 Z " fill="#141414" transform="translate(131,244)"/>
<path d="M0 0 C2.5 1.125 2.5 1.125 4 3 C4.69643977 6.83041873 4.01713344 9.38403153 2.25 12.75 C-0.8372093 17.20930233 -0.8372093 17.20930233 -4 18 C-7.5260647 18.3862221 -10.77550469 18.65051313 -14 16.9375 C-15.61972331 13.79928609 -15.41226709 11.47482259 -15 8 C-11.2971544 1.23273046 -7.69977959 -0.9760284 0 0 Z " fill="#0E0E0E" transform="translate(217,202)"/>
<path d="M0 0 C1.91595968 -0.08133791 3.83291932 -0.13934367 5.75 -0.1875 C7.35101563 -0.23970703 7.35101563 -0.23970703 8.984375 -0.29296875 C12.30027855 0.02917214 13.59016673 0.77148914 16 3 C15.625 5.4375 15.625 5.4375 15 8 C14.01 8.495 14.01 8.495 13 9 C13.33 9.94875 13.66 10.8975 14 11.875 C15 15 15 15 15 17 C12.6739143 17.38063221 10.33944736 17.71269945 8 18 C7 17 7 17 6.9375 13.9375 C6.9684375 12.4834375 6.9684375 12.4834375 7 11 C6.01 11 5.02 11 4 11 C4 13.31 4 15.62 4 18 C1.03 18 -1.94 18 -5 18 C-4.80664062 17.3709375 -4.61328125 16.741875 -4.4140625 16.09375 C-2.7907875 10.75783615 -1.30539435 5.42240732 0 0 Z " fill="#181818" transform="translate(185,202)"/>
<path d="M0 0 C4.95 0 9.9 0 15 0 C16 4 16 4 15 6 C14.01 6 13.02 6 12 6 C12 5.01 12 4.02 12 3 C10.35 3 8.7 3 7 3 C7 4.32 7 5.64 7 7 C8.32 6.67 9.64 6.34 11 6 C10.67 7.98 10.34 9.96 10 12 C10.66 12 11.32 12 12 12 C12.042721 13.66611905 12.04063832 15.33382885 12 17 C11 18 11 18 7.62109375 18.09765625 C6.22652923 18.09098369 4.83198257 18.07902532 3.4375 18.0625 C2.72658203 18.05798828 2.01566406 18.05347656 1.28320312 18.04882812 C-0.47790013 18.03700864 -2.23896036 18.01907263 -4 18 C-3.69255859 16.93072266 -3.69255859 16.93072266 -3.37890625 15.83984375 C-3.10949219 14.88207031 -2.84007812 13.92429687 -2.5625 12.9375 C-2.29566406 11.99777344 -2.02882812 11.05804688 -1.75390625 10.08984375 C-0.94471551 6.77341952 -0.4827724 3.37940677 0 0 Z " fill="#060606" transform="translate(198,244)"/>
<path d="M0 0 C4.95 0 9.9 0 15 0 C15 1.98 15 3.96 15 6 C14.01 6 13.02 6 12 6 C12 5.01 12 4.02 12 3 C10.35 3 8.7 3 7 3 C7 4.32 7 5.64 7 7 C8.32 6.67 9.64 6.34 11 6 C10.67 7.98 10.34 9.96 10 12 C10.99 12 11.98 12 13 12 C12.125 16.875 12.125 16.875 11 18 C8.46950598 18.07313567 5.96695163 18.09247527 3.4375 18.0625 C2.72658203 18.05798828 2.01566406 18.05347656 1.28320312 18.04882812 C-0.47790013 18.03700864 -2.23896036 18.01907263 -4 18 C-3.69255859 17.05640625 -3.69255859 17.05640625 -3.37890625 16.09375 C-1.68028765 10.69718181 -0.52161147 5.63340386 0 0 Z " fill="#141414" transform="translate(146,202)"/>
<path d="M0 0 C2.10388569 -0.05402274 4.20816714 -0.09280256 6.3125 -0.125 C8.07013672 -0.15980469 8.07013672 -0.15980469 9.86328125 -0.1953125 C13 0 13 0 16 2 C16.5 4.875 16.5 4.875 16 8 C12.68898791 11.60316022 9.8084187 12.55270524 5 13 C5 14.65 5 16.3 5 18 C2.03 18 -0.94 18 -4 18 C-3.69255859 16.93072266 -3.69255859 16.93072266 -3.37890625 15.83984375 C-1.89379353 10.56023251 -0.60587654 5.45288884 0 0 Z " fill="#171717" transform="translate(136,287)"/>
<path d="M0 0 C12.625 -0.25 12.625 -0.25 16 2 C16.6540924 7.12372383 16.6540924 7.12372383 14.76953125 9.6484375 C12.55620478 11.33896942 11.07001234 11.48768027 8.3125 11.6875 C7.10013672 11.78611328 7.10013672 11.78611328 5.86328125 11.88671875 C5.24839844 11.92410156 4.63351563 11.96148437 4 12 C4.33 13.98 4.66 15.96 5 18 C2.03 18 -0.94 18 -4 18 C-2.68 12.06 -1.36 6.12 0 0 Z " fill="#080808" transform="translate(52,202)"/>
<path d="M0 0 C1.93719378 -0.05406122 3.87481921 -0.09282025 5.8125 -0.125 C6.89144531 -0.14820313 7.97039062 -0.17140625 9.08203125 -0.1953125 C12 0 12 0 15 2 C15.5 4.875 15.5 4.875 15 8 C11.68898791 11.60316022 8.8084187 12.55270524 4 13 C4 14.65 4 16.3 4 18 C1.03 18 -1.94 18 -5 18 C-3.36959185 11.98922864 -1.72852643 5.98336072 0 0 Z " fill="#141414" transform="translate(129,202)"/>
<path d="M0 0 C3.5625 0.1875 3.5625 0.1875 5.5625 2.1875 C6.02390461 7.83970649 4.90320248 12.74089619 3.5625 18.1875 C0.5925 18.1875 -2.3775 18.1875 -5.4375 18.1875 C-5.4375 17.5275 -5.4375 16.8675 -5.4375 16.1875 C-4.7775 16.1875 -4.1175 16.1875 -3.4375 16.1875 C-3.4375 15.1975 -3.4375 14.2075 -3.4375 13.1875 C-4.7575 13.1875 -6.0775 13.1875 -7.4375 13.1875 C-7.4375 14.8375 -7.4375 16.4875 -7.4375 18.1875 C-9.7475 18.1875 -12.0575 18.1875 -14.4375 18.1875 C-14.4375 17.5275 -14.4375 16.8675 -14.4375 16.1875 C-13.84324219 15.60355469 -13.24898437 15.01960938 -12.63671875 14.41796875 C-10.2050383 11.95173511 -8.84243914 9.56616174 -7.25 6.5 C-3.96241324 0.21613163 -3.96241324 0.21613163 0 0 Z " fill="#0D0D0D" transform="translate(69.4375,243.8125)"/>
<path d="M0 0 C1.32 0 2.64 0 4 0 C4.99 0.33 5.98 0.66 7 1 C6.34 2.98 5.68 4.96 5 7 C4.4225 6.67 3.845 6.34 3.25 6 C0.80116138 4.72924102 0.80116138 4.72924102 -3 5 C-3.99 7.97 -4.98 10.94 -6 14 C-4.68 13.67 -3.36 13.34 -2 13 C-2.33 11.68 -2.66 10.36 -3 9 C-0.03 9 2.94 9 6 9 C6 9.66 6 10.32 6 11 C5.34 11 4.68 11 4 11 C3.67 12.98 3.34 14.96 3 17 C-1.85158892 18.33836936 -6.06680496 17.98663901 -11 17 C-13.35620437 13.46569344 -13.48991613 12.16428713 -13 8 C-9.55106193 1.81569725 -7.08399255 -0.28914255 0 0 Z " fill="#111111" transform="translate(89,244)"/>
<path d="M0 0 C0.99 0.66 1.98 1.32 3 2 C3 1.34 3 0.68 3 0 C3.99 0 4.98 0 6 0 C5.67 2.31 5.34 4.62 5 7 C4.4225 6.690625 3.845 6.38125 3.25 6.0625 C1.15705816 5.07416636 -0.74535275 4.4831387 -3 4 C-5.09350689 7.4019487 -5.17942163 10.05272412 -5 14 C-4.34 14 -3.68 14 -3 14 C-3.33 12.35 -3.66 10.7 -4 9 C-0.7 9 2.6 9 6 9 C4.68 11.97 3.36 14.94 2 18 C0.06372231 18.10807131 -1.87427756 18.1856225 -3.8125 18.25 C-5.43091797 18.31960938 -5.43091797 18.31960938 -7.08203125 18.390625 C-10 18 -10 18 -11.859375 16.1640625 C-13.43902848 13.1670487 -13.4695028 11.35359142 -13 8 C-9.64283863 1.98026237 -7.03704793 -0.58642066 0 0 Z " fill="#0A0A0A" transform="translate(165,287)"/>
<path d="M0 0 C4.95 0 9.9 0 15 0 C15 1.65 15 3.3 15 5 C14.01 5.33 13.02 5.66 12 6 C11.67 5.34 11.34 4.68 11 4 C8.97536745 3.34786708 8.97536745 3.34786708 7 3 C6.67 4.65 6.34 6.3 6 8 C7.65 7.34 9.3 6.68 11 6 C10.34 7.98 9.68 9.96 9 12 C7.68 11.34 6.36 10.68 5 10 C4.67 11.65 4.34 13.3 4 15 C4.763125 14.690625 5.52625 14.38125 6.3125 14.0625 C8.18789677 13.32106407 10.08684652 12.63771783 12 12 C11.67 13.98 11.34 15.96 11 18 C5.72 18 0.44 18 -5 18 C-4.01 15.69 -3.02 13.38 -2 11 C-1.2427968 7.96485049 -1.2427968 7.96485049 -0.8125 5.0625 C-0.4103125 2.5565625 -0.4103125 2.5565625 0 0 Z " fill="#101010" transform="translate(162,244)"/>
<path d="M0 0 C1.08667969 0.01804688 2.17335938 0.03609375 3.29296875 0.0546875 C4.54013672 0.08949219 4.54013672 0.08949219 5.8125 0.125 C5.4825 2.105 5.1525 4.085 4.8125 6.125 C1.88370629 5.49740135 -0.54845629 4.53877341 -3.1875 3.125 C-3.1875 4.115 -3.1875 5.105 -3.1875 6.125 C-2.383125 6.434375 -1.57875 6.74375 -0.75 7.0625 C1.8125 8.125 1.8125 8.125 2.8125 9.125 C3.2728413 14.41892491 3.2728413 14.41892491 1.71484375 16.80859375 C-1.12446608 18.77337283 -3.47191648 18.41358169 -6.875 18.3125 C-8.64423828 18.27189453 -8.64423828 18.27189453 -10.44921875 18.23046875 C-11.35285156 18.19566406 -12.25648437 18.16085938 -13.1875 18.125 C-12.8575 15.815 -12.5275 13.505 -12.1875 11.125 C-11.1975 11.125 -10.2075 11.125 -9.1875 11.125 C-8.1975 12.61 -8.1975 12.61 -7.1875 14.125 C-5.12824861 14.84882467 -5.12824861 14.84882467 -3.1875 15.125 C-3.97125 14.34125 -4.755 13.5575 -5.5625 12.75 C-7.10416667 11.20833333 -8.64583333 9.66666667 -10.1875 8.125 C-10 5.125 -10 5.125 -9.1875 2.125 C-5.66070901 -0.22619399 -4.15870515 -0.08943452 0 0 Z " fill="#0B0B0B" transform="translate(107.1875,201.875)"/>
<path d="M0 0 C1.08667969 0.01804688 2.17335937 0.03609375 3.29296875 0.0546875 C4.54013672 0.08949219 4.54013672 0.08949219 5.8125 0.125 C5.4825 2.105 5.1525 4.085 4.8125 6.125 C1.88370629 5.49740135 -0.54845629 4.53877341 -3.1875 3.125 C-3.1875 4.115 -3.1875 5.105 -3.1875 6.125 C-2.383125 6.434375 -1.57875 6.74375 -0.75 7.0625 C1.8125 8.125 1.8125 8.125 2.8125 9.125 C3.2728413 14.41892491 3.2728413 14.41892491 1.71484375 16.80859375 C-1.12446608 18.77337283 -3.47191648 18.41358169 -6.875 18.3125 C-8.64423828 18.27189453 -8.64423828 18.27189453 -10.44921875 18.23046875 C-11.35285156 18.19566406 -12.25648438 18.16085937 -13.1875 18.125 C-13.1875 16.475 -13.1875 14.825 -13.1875 13.125 C-11.8675 12.465 -10.5475 11.805 -9.1875 11.125 C-8.1975 12.61 -8.1975 12.61 -7.1875 14.125 C-5.12824861 14.84882467 -5.12824861 14.84882467 -3.1875 15.125 C-3.97125 14.34125 -4.755 13.5575 -5.5625 12.75 C-7.10416667 11.20833333 -8.64583333 9.66666667 -10.1875 8.125 C-10 5.125 -10 5.125 -9.1875 2.125 C-5.66070901 -0.22619399 -4.15870515 -0.08943452 0 0 Z " fill="#0B0B0B" transform="translate(189.1875,243.875)"/>
<path d="M0 0 C1.18613892 0.00785522 1.18613892 0.00785522 2.39624023 0.01586914 C3.67724609 0.02070313 3.67724609 0.02070313 4.98413086 0.02563477 C5.88196289 0.03401367 6.77979492 0.04239258 7.70483398 0.05102539 C8.6065332 0.05553711 9.50823242 0.06004883 10.43725586 0.06469727 C12.67234712 0.07652315 14.90730835 0.09300319 17.14233398 0.11352539 C16.81233398 2.09352539 16.48233398 4.07352539 16.14233398 6.11352539 C15.15233398 6.11352539 14.16233398 6.11352539 13.14233398 6.11352539 C12.15233398 5.12352539 11.16233398 4.13352539 10.14233398 3.11352539 C9.15233398 8.06352539 8.16233398 13.01352539 7.14233398 18.11352539 C4.50233398 18.11352539 1.86233398 18.11352539 -0.85766602 18.11352539 C-0.64110352 17.43805664 -0.42454102 16.76258789 -0.20141602 16.06665039 C0.07702148 15.17461914 0.35545898 14.28258789 0.64233398 13.36352539 C0.92077148 12.48180664 1.19920898 11.60008789 1.48608398 10.69165039 C2.30678684 7.9108501 2.30678684 7.9108501 2.14233398 4.11352539 C1.48233398 4.77352539 0.82233398 5.43352539 0.14233398 6.11352539 C-0.84766602 6.11352539 -1.83766602 6.11352539 -2.85766602 6.11352539 C-2.90038702 4.44740634 -2.89830434 2.77969654 -2.85766602 1.11352539 C-1.85766602 0.11352539 -1.85766602 0.11352539 0 0 Z " fill="#050505" transform="translate(165.857666015625,201.886474609375)"/>
<path d="M0 0 C2.97 0 5.94 0 9 0 C5.92482916 10.55808656 5.92482916 10.55808656 4 15 C4.7425 14.525625 5.485 14.05125 6.25 13.5625 C8.61050015 12.22130673 10.36648477 11.487688 13 11 C12.125 16.875 12.125 16.875 11 18 C8.4672235 18.07320163 5.96896082 18.09227569 3.4375 18.0625 C0.983125 18.041875 -1.47125 18.02125 -4 18 C-2.68 12.06 -1.36 6.12 0 0 Z " fill="#131313" transform="translate(216,244)"/>
<path d="M0 0 C2.97 0 5.94 0 9 0 C8.525625 1.36125 8.05125 2.7225 7.5625 4.125 C6.35345898 7.735014 5.4856046 11.21228412 5 15 C5.99 15 6.98 15 8 15 C8.66 13.68 9.32 12.36 10 11 C10.99 11 11.98 11 13 11 C12.125 16.875 12.125 16.875 11 18 C8.46950598 18.07313567 5.96695163 18.09247527 3.4375 18.0625 C2.72658203 18.05798828 2.01566406 18.05347656 1.28320312 18.04882812 C-0.47790013 18.03700864 -2.23896036 18.01907263 -4 18 C-3.69255859 16.93072266 -3.69255859 16.93072266 -3.37890625 15.83984375 C-1.89379353 10.56023251 -0.60587654 5.45288884 0 0 Z " fill="#131313" transform="translate(224,202)"/>
<path d="M0 0 C2.97 0 5.94 0 9 0 C5.92482916 10.55808656 5.92482916 10.55808656 4 15 C5.1446875 14.2884375 5.1446875 14.2884375 6.3125 13.5625 C9 12 9 12 12 11 C12.04254356 12.99954746 12.04080783 15.00041636 12 17 C11 18 11 18 7.40234375 18.09765625 C5.91403133 18.0909822 4.42573568 18.07902183 2.9375 18.0625 C2.17888672 18.05798828 1.42027344 18.05347656 0.63867188 18.04882812 C-1.24091871 18.0370068 -3.12046899 18.01907078 -5 18 C-4.52949219 16.96746094 -4.05898437 15.93492187 -3.57421875 14.87109375 C-2.18539879 11.63051385 -1.3731429 8.55573655 -0.8125 5.0625 C-0.65394531 4.10472656 -0.49539062 3.14695312 -0.33203125 2.16015625 C-0.22246094 1.44730469 -0.11289063 0.73445313 0 0 Z " fill="#121212" transform="translate(119,287)"/>
<path d="M0 0 C2.97 0 5.94 0 9 0 C8.80664062 0.6290625 8.61328125 1.258125 8.4140625 1.90625 C6.7907875 7.24216385 5.30539435 12.57759268 4 18 C1.03 18 -1.94 18 -5 18 C-4.54625 17.071875 -4.0925 16.14375 -3.625 15.1875 C-1.51330779 10.32360231 -0.80102357 5.21136509 0 0 Z " fill="#111111" transform="translate(151,244)"/>
<path d="M0 0 C0.33 0.66 0.66 1.32 1 2 C1.66 2.33 2.32 2.66 3 3 C3.103125 3.763125 3.20625 4.52625 3.3125 5.3125 C4.22861744 8.89368634 6.10174937 9.84489056 9 12 C9 12.66 9 13.32 9 14 C6.525 13.505 6.525 13.505 4 13 C3.67 12.01 3.34 11.02 3 10 C-0.22404978 11.66954819 -0.22404978 11.66954819 -0.6875 14.625 C-0.8421875 15.800625 -0.8421875 15.800625 -1 17 C-3 14 -3 14 -3 11 C-3.5775 11.495 -4.155 11.99 -4.75 12.5 C-7 14 -7 14 -11 14 C-10.67 12.35 -10.34 10.7 -10 9 C-8.02 9.495 -8.02 9.495 -6 10 C-5.34 8.35 -4.68 6.7 -4 5 C-5.65 5.66 -7.3 6.32 -9 7 C-8.67 5.35 -8.34 3.7 -8 2 C-6.35 2.33 -4.7 2.66 -3 3 C-3 3.66 -3 4.32 -3 5 C-2.34 4.67 -1.68 4.34 -1 4 C-0.34786708 1.97536745 -0.34786708 1.97536745 0 0 Z " fill="#E6E6E6" transform="translate(177,245)"/>
<path d="M0 0 C2.97 0 5.94 0 9 0 C8.34 0.66 7.68 1.32 7 2 C6.22960999 4.18745776 5.52938697 6.40008429 4.875 8.625 C4.52179688 9.81351563 4.16859375 11.00203125 3.8046875 12.2265625 C3.53914062 13.14179688 3.27359375 14.05703125 3 15 C3.66 15 4.32 15 5 15 C5 15.66 5 16.32 5 17 C1.7 17 -1.6 17 -5 17 C-4.54625 15.494375 -4.0925 13.98875 -3.625 12.4375 C-2.38332264 8.30053705 -1.17464682 4.1564426 0 0 Z " fill="#090909" transform="translate(131,245)"/>
<path d="M0 0 C2.10388569 -0.05402274 4.20816714 -0.09280256 6.3125 -0.125 C8.07013672 -0.15980469 8.07013672 -0.15980469 9.86328125 -0.1953125 C13 0 13 0 16 2 C16.38848434 5.04312737 16.5019219 7.09026656 15 9.8125 C11.81931546 11.70103144 8.66530121 11.69956547 5 12 C5.45822468 8.53058454 5.89131683 5.32604951 7 2 C4.69 1.67 2.38 1.34 0 1 C0 0.67 0 0.34 0 0 Z " fill="#1E1E1E" transform="translate(52,202)"/>
<path d="M0 0 C1.65 0 3.3 0 5 0 C5 0.99 5 1.98 5 3 C6.65 2.67 8.3 2.34 10 2 C10.38281159 7.23175837 9.21854707 10.37802694 7 15 C6.34 14.34 5.68 13.68 5 13 C5 11.68 5 10.36 5 9 C4.34 9 3.68 9 3 9 C3.33 7.02 3.66 5.04 4 3 C2.68 3.33 1.36 3.66 0 4 C0 2.68 0 1.36 0 0 Z " fill="#E8E8E8" transform="translate(205,247)"/>
<path d="M0 0 C0.66 0 1.32 0 2 0 C0.32225263 4.81522974 -2.25565446 8.94666344 -4.9375 13.25 C-5.38029297 13.9821875 -5.82308594 14.714375 -6.27929688 15.46875 C-6.71177734 16.16484375 -7.14425781 16.8609375 -7.58984375 17.578125 C-7.98034912 18.21137695 -8.37085449 18.84462891 -8.77319336 19.49707031 C-10 21 -10 21 -13 22 C-12.3741651 18.8403293 -11.29325733 16.61208403 -9.53125 13.92578125 C-9.04269531 13.17619141 -8.55414063 12.42660156 -8.05078125 11.65429688 C-7.53902344 10.88150391 -7.02726562 10.10871094 -6.5 9.3125 C-5.98824219 8.52810547 -5.47648437 7.74371094 -4.94921875 6.93554688 C-1.17569314 1.17569314 -1.17569314 1.17569314 0 0 Z " fill="#1C1C1C" transform="translate(125,200)"/>
<path d="M0 0 C1.66611905 -0.042721 3.33382885 -0.04063832 5 0 C6 1 6 1 6.25 3.875 C6 7 6 7 4.875 8.875 C2.21965017 10.4682099 0.03210482 10.20214032 -3 10 C-3.33 9.34 -3.66 8.68 -4 8 C-3.01 8 -2.02 8 -1 8 C-0.67 5.36 -0.34 2.72 0 0 Z " fill="#080808" transform="translate(146,288)"/>
<path d="M0 0 C0.66 0 1.32 0 2 0 C1.00574135 5.14487092 -2.05814129 8.96942026 -4.9375 13.25 C-5.48857422 14.09046875 -6.03964844 14.9309375 -6.60742188 15.796875 C-7.13787109 16.5909375 -7.66832031 17.385 -8.21484375 18.203125 C-8.70073975 18.93176758 -9.18663574 19.66041016 -9.68725586 20.41113281 C-10.33706421 21.19762207 -10.33706421 21.19762207 -11 22 C-11.66 22 -12.32 22 -13 22 C-11.32887344 17.14895833 -8.67263602 13.05193955 -5.9375 8.75 C-5.47794922 8.0178125 -5.01839844 7.285625 -4.54492188 6.53125 C-1.15472274 1.15472274 -1.15472274 1.15472274 0 0 Z " fill="#1F1F1F" transform="translate(127,242)"/>
<path d="M0 0 C1.9375 0.8125 1.9375 0.8125 4 2 C4.33 2.99 4.66 3.98 5 5 C6.65 5 8.3 5 10 5 C10 5.33 10 5.66 10 6 C6.7 6.33 3.4 6.66 0 7 C0 8.32 0 9.64 0 11 C-1.32 11 -2.64 11 -4 11 C-3.38461538 3.49230769 -3.38461538 3.49230769 -1.4375 1 C-0.963125 0.67 -0.48875 0.34 0 0 Z " fill="#D8D8D8" transform="translate(87,247)"/>
<path d="M0 0 C1.66611905 -0.042721 3.33382885 -0.04063832 5 0 C6 1 6 1 6.25 3.875 C6 7 6 7 4.875 8.875 C2.21965017 10.4682099 0.03210482 10.20214032 -3 10 C-3.33 9.34 -3.66 8.68 -4 8 C-3.01 8 -2.02 8 -1 8 C-0.67 5.36 -0.34 2.72 0 0 Z " fill="#080808" transform="translate(138,203)"/>
<path d="M0 0 C1.875 0.25 1.875 0.25 4 1 C4.69937532 2.31647119 5.36729133 3.65022151 6 5 C6.99 5.33 7.98 5.66 9 6 C4.545 6.495 4.545 6.495 0 7 C0.33 8.32 0.66 9.64 1 11 C-0.32 11 -1.64 11 -3 11 C-3.32613618 6.32538149 -2.70582788 3.83325617 0 0 Z " fill="#D4D4D4" transform="translate(162,290)"/>
<path d="M0 0 C2.97 0 5.94 0 9 0 C9 0.66 9 1.32 9 2 C8.34 2 7.68 2 7 2 C6.67 3.98 6.34 5.96 6 8 C4.68 8.33 3.36 8.66 2 9 C2 8.34 2 7.68 2 7 C1.34 6.67 0.68 6.34 0 6 C0.185625 5.38125 0.37125 4.7625 0.5625 4.125 C1.23686176 1.95839822 1.23686176 1.95839822 0 0 Z " fill="#060606" transform="translate(86,253)"/>
<path d="M0 0 C0.66 0 1.32 0 2 0 C1.46148032 5.27749285 0.22656164 9.25645564 -2 14 C-2.66 14 -3.32 14 -4 14 C-4.41733821 7.94859592 -4.10415132 4.82841331 0 0 Z " fill="#E2E2E2" transform="translate(107,246)"/>
<path d="M0 0 C0.99 0 1.98 0 3 0 C2.88490339 1.41750563 2.75746342 2.83401169 2.625 4.25 C2.55539063 5.03890625 2.48578125 5.8278125 2.4140625 6.640625 C1.98492887 9.085877 1.21399362 10.84836903 0 13 C-0.99 13 -1.98 13 -3 13 C-2.45144652 8.428721 -1.58255197 4.32564205 0 0 Z " fill="#E8E8E8" transform="translate(211,205)"/>
<path d="M0 0 C1.18613892 0.00785522 1.18613892 0.00785522 2.39624023 0.01586914 C3.67724609 0.02070313 3.67724609 0.02070313 4.98413086 0.02563477 C5.88196289 0.03401367 6.77979492 0.04239258 7.70483398 0.05102539 C8.6065332 0.05553711 9.50823242 0.06004883 10.43725586 0.06469727 C12.67234712 0.07652315 14.90730835 0.09300319 17.14233398 0.11352539 C17.14233398 0.44352539 17.14233398 0.77352539 17.14233398 1.11352539 C12.85233398 1.11352539 8.56233398 1.11352539 4.14233398 1.11352539 C3.81233398 2.43352539 3.48233398 3.75352539 3.14233398 5.11352539 C2.48233398 5.11352539 1.82233398 5.11352539 1.14233398 5.11352539 C-0.19549995 5.42830985 -1.52970311 5.75940195 -2.85766602 6.11352539 C-2.90038702 4.44740634 -2.89830434 2.77969654 -2.85766602 1.11352539 C-1.85766602 0.11352539 -1.85766602 0.11352539 0 0 Z " fill="#2E2E2E" transform="translate(165.857666015625,201.886474609375)"/>
<path d="M0 0 C1.32 0.33 2.64 0.66 4 1 C3.44894091 4.9492568 2.61064629 8.34920174 1 12 C0.01 12 -0.98 12 -2 12 C-1.44687265 7.97007218 -0.8441938 3.97977076 0 0 Z " fill="#E3E3E3" transform="translate(137,247)"/>
<path d="M0 0 C0.66 0.33 1.32 0.66 2 1 C1.01 2.485 1.01 2.485 0 4 C0.99 4 1.98 4 3 4 C2.34 5.98 1.68 7.96 1 10 C-0.98 10 -2.96 10 -5 10 C-3.84414715 6.08788267 -2.64465038 3.1254959 0 0 Z " fill="#1C1C1C" transform="translate(66,244)"/>
<path d="M0 0 C4.95 0 9.9 0 15 0 C16 4 16 4 15 6 C14.01 6 13.02 6 12 6 C12 5.01 12 4.02 12 3 C10.35 3 8.7 3 7 3 C7 2.67 7 2.34 7 2 C4.03 1.505 4.03 1.505 1 1 C0.67 1.99 0.34 2.98 0 4 C0 2.68 0 1.36 0 0 Z " fill="#353535" transform="translate(198,244)"/>
<path d="M0 0 C1.65 0 3.3 0 5 0 C4.25 6.75 4.25 6.75 2 9 C1.01 9 0.02 9 -1 9 C-1.07427838 5.65747276 -1.06546953 3.1964086 0 0 Z " fill="#222222" transform="translate(152,208)"/>
<path d="M0 0 C3.96 0 7.92 0 12 0 C11.67 1.98 11.34 3.96 11 6 C6.80639551 5.32902328 3.59665648 3.1441606 0 1 C0 0.67 0 0.34 0 0 Z " fill="#1F1F1F" transform="translate(183,244)"/>
<path d="M0 0 C3.96 0 7.92 0 12 0 C11.67 1.98 11.34 3.96 11 6 C6.80639551 5.32902328 3.59665648 3.1441606 0 1 C0 0.67 0 0.34 0 0 Z " fill="#1F1F1F" transform="translate(101,202)"/>
<path d="M0 0 C0.99 0 1.98 0 3 0 C7 4.34285714 7 4.34285714 7 7 C4.36 7 1.72 7 -1 7 C-0.67 4.69 -0.34 2.38 0 0 Z " fill="#1B1B1B" transform="translate(95,213)"/>
<path d="M0 0 C0.66 0 1.32 0 2 0 C6 4.47058824 6 4.47058824 6 7 C3.36 7 0.72 7 -2 7 C-2.125 4.625 -2.125 4.625 -2 2 C-1.34 1.34 -0.68 0.68 0 0 Z " fill="#171717" transform="translate(178,255)"/>
<path d="M0 0 C0.66 0 1.32 0 2 0 C0.66511872 3.59391114 -0.96022723 6.75490696 -3 10 C-3.99 9.34 -4.98 8.68 -6 8 C-5.04956626 6.66102417 -4.08940853 5.32894573 -3.125 4 C-2.59132813 3.2575 -2.05765625 2.515 -1.5078125 1.75 C-1.01023437 1.1725 -0.51265625 0.595 0 0 Z " fill="#2C2C2C" transform="translate(125,200)"/>
<path d="M0 0 C0.99 0 1.98 0 3 0 C2.67 2.31 2.34 4.62 2 7 C0.68 6.34 -0.64 5.68 -2 5 C-2 4.01 -2 3.02 -2 2 C-1.34 2 -0.68 2 0 2 C0 1.34 0 0.68 0 0 Z " fill="#161616" transform="translate(168,287)"/>
<path d="M0 0 C0.66 0.33 1.32 0.66 2 1 C2 2.32 2 3.64 2 5 C-0.31 5 -2.62 5 -5 5 C-5 4.34 -5 3.68 -5 3 C-2.625 1.3125 -2.625 1.3125 0 0 Z " fill="#262626" transform="translate(60,257)"/>
<path d="M0 0 C2.475 0.99 2.475 0.99 5 2 C3.6875 4 3.6875 4 2 6 C1.01 6 0.02 6 -1 6 C-0.67 4.02 -0.34 2.04 0 0 Z " fill="#D7D7D7" transform="translate(203,254)"/>
<path d="M0 0 C1.65 0 3.3 0 5 0 C4.67 1.98 4.34 3.96 4 6 C1.525 5.01 1.525 5.01 -1 4 C-0.67 2.68 -0.34 1.36 0 0 Z " fill="#222222" transform="translate(204,250)"/>
<path d="M0 0 C0.99 0 1.98 0 3 0 C3 1.98 3 3.96 3 6 C2.01 6.33 1.02 6.66 0 7 C-1.125 2.25 -1.125 2.25 0 0 Z " fill="#DADADA" transform="translate(189,213)"/>
<path d="M0 0 C1.65 0 3.3 0 5 0 C5 0.99 5 1.98 5 3 C5.66 3.33 6.32 3.66 7 4 C6.01 4.33 5.02 4.66 4 5 C4 4.34 4 3.68 4 3 C2.68 3.33 1.36 3.66 0 4 C0 2.68 0 1.36 0 0 Z " fill="#DEDEDE" transform="translate(205,247)"/>
<path d="M0 0 C3.35595828 0.59927826 5.37801226 1.84622436 8 4 C5.6875 4.625 5.6875 4.625 3 5 C2.01 4.34 1.02 3.68 0 3 C0 2.01 0 1.02 0 0 Z " fill="#DEDEDE" transform="translate(186,247)"/>
<path d="M0 0 C1.65 0 3.3 0 5 0 C5 0.99 5 1.98 5 3 C5.66 3.33 6.32 3.66 7 4 C6.01 4.33 5.02 4.66 4 5 C4 4.34 4 3.68 4 3 C2.68 3.33 1.36 3.66 0 4 C0 2.68 0 1.36 0 0 Z " fill="#DEDEDE" transform="translate(153,205)"/>
<path d="M0 0 C3.35595828 0.59927826 5.37801226 1.84622436 8 4 C5.6875 4.625 5.6875 4.625 3 5 C2.01 4.34 1.02 3.68 0 3 C0 2.01 0 1.02 0 0 Z " fill="#DEDEDE" transform="translate(104,205)"/>
<path d="M0 0 C0.66 0 1.32 0 2 0 C0.87548273 2.9719385 -0.22293791 5.33440687 -2 8 C-2.66 8 -3.32 8 -4 8 C-2.87548273 5.0280615 -1.77706209 2.66559313 0 0 Z " fill="#151515" transform="translate(118,256)"/>
<path d="M0 0 C1.65 0.33 3.3 0.66 5 1 C5 1.66 5 2.32 5 3 C3.02 3.66 1.04 4.32 -1 5 C-0.67 3.35 -0.34 1.7 0 0 Z " fill="#D2D2D2" transform="translate(169,247)"/>
<path d="M0 0 C0.99 0 1.98 0 3 0 C2.67 1.98 2.34 3.96 2 6 C1.01 6 0.02 6 -1 6 C-0.67 4.02 -0.34 2.04 0 0 Z " fill="#E8E8E8" transform="translate(143,290)"/>
<path d="M0 0 C1.32 0.33 2.64 0.66 4 1 C4 2.32 4 3.64 4 5 C2.68 5 1.36 5 0 5 C0 3.35 0 1.7 0 0 Z " fill="#C9C9C9" transform="translate(83,253)"/>
<path d="M0 0 C0.99 0 1.98 0 3 0 C2.34 1.98 1.68 3.96 1 6 C0.01 6 -0.98 6 -2 6 C-1.34 4.02 -0.68 2.04 0 0 Z " fill="#E6E6E6" transform="translate(66,248)"/>
<path d="M0 0 C0.99 0 1.98 0 3 0 C2.67 1.65 2.34 3.3 2 5 C1.01 5.33 0.02 5.66 -1 6 C-0.67 4.02 -0.34 2.04 0 0 Z " fill="#E6E6E6" transform="translate(59,205)"/>
<path d="M0 0 C0.99 0 1.98 0 3 0 C2.67 1.98 2.34 3.96 2 6 C1.01 6 0.02 6 -1 6 C-0.67 4.02 -0.34 2.04 0 0 Z " fill="#E8E8E8" transform="translate(135,205)"/>
<path d="M0 0 C0.66 0 1.32 0 2 0 C1.43628586 3.26954202 0.50037734 4.82575883 -2 7 C-2 3 -2 3 0 0 Z " fill="#282828" transform="translate(127,242)"/>
<path d="M0 0 C1.32 0 2.64 0 4 0 C3.67 1.65 3.34 3.3 3 5 C2.34 5 1.68 5 1 5 C0.67 3.35 0.34 1.7 0 0 Z " fill="#040404" transform="translate(173,245)"/>
<path d="M0 0 C2.475 0.99 2.475 0.99 5 2 C4.01 3.485 4.01 3.485 3 5 C2.01 5 1.02 5 0 5 C0 3.35 0 1.7 0 0 Z " fill="#F1F1F1" transform="translate(151,212)"/>
<path d="M0 0 C1.32 0 2.64 0 4 0 C4 1.65 4 3.3 4 5 C3.01 5 2.02 5 1 5 C0.67 3.35 0.34 1.7 0 0 Z " fill="#050505" transform="translate(157,203)"/>
</svg>
